# xmcd
#
# Track frame offsets: 
#        150
#        18548
#        30136
#        40678
#        52205
#        63815
#        80440
#        91301
#        103699
#        121689
#
# Disc length: 2022 seconds
#
# Revision: 0
# Processed by: cddbd v1.5.2PL0 Copyright (c) Steve Scherf et al.
# Submitted via: ExactAudioCopy v0.99pb4
#
DISCID=6f07e40a
DTITLE=VADIM IVASCHENKO - RAGS,BLUES and BARRELHOUSE MUSIC VOL.1
DYEAR=2007
DGENRE=Blues
TTITLE0=INTRO - BLACK TEA BLUES (iVASSCHENKO)
TTITLE1=DEEP RIVER BLUES (TRADITIONAL)
TTITLE2=NINE POUND HAMMER (TRAVIS)
TTITLE3=LONESOME ROAD (CARLTON)
TTITLE4=LOVETRAIN GIRL (IVASHENKO - MISHOURIS)
TTITLE5=ME AND MY CRAZY SELF (GLOVER - MANN)
TTITLE6=SOUTHBOND JUMP (IVASCHENKO)
TTITLE7=SITTING ON TOP OF THE WORLD (CHATMON - VINSON)
TTITLE8=ANOTHER BAD RABBIT (IVASCHENKO)
TTITLE9=MAN OF CONSTANT SORROW (TRADITIONAL)
EXTD=
EXTT0=
EXTT1=
EXTT2=
EXTT3=
EXTT4=
EXTT5=
EXTT6=
EXTT7=
EXTT8=
EXTT9=
PLAYORDER=
